<svg width="23" height="23" viewBox="0 0 23 23" fill="none" xmlns="http://www.w3.org/2000/svg">
<path d="M16.6668 14.6667H15.6134L15.2401 14.3067C16.8401 12.44 17.6668 9.89334 17.2134 7.18667C16.5868 3.48 13.4934 0.520002 9.7601 0.0666692C4.1201 -0.626664 -0.626565 4.12 0.0667684 9.76C0.520102 13.4933 3.4801 16.5867 7.18677 17.2133C9.89344 17.6667 12.4401 16.84 14.3068 15.24L14.6668 15.6133V16.6667L20.3334 22.3333C20.8801 22.88 21.7734 22.88 22.3201 22.3333C22.8668 21.7867 22.8668 20.8933 22.3201 20.3467L16.6668 14.6667ZM8.66677 14.6667C5.34677 14.6667 2.66677 11.9867 2.66677 8.66667C2.66677 5.34667 5.34677 2.66667 8.66677 2.66667C11.9868 2.66667 14.6668 5.34667 14.6668 8.66667C14.6668 11.9867 11.9868 14.6667 8.66677 14.6667Z" fill="#C4C4C4"/>
</svg>